<?xml version="1.0" encoding="UTF-8" standalone="no"?>
<!-- Generator: Adobe Illustrator 12.0.0, SVG Export Plug-In . SVG Version: 6.00 Build 51448)  -->

<svg
   xmlns:dc="http://purl.org/dc/elements/1.1/"
   xmlns:cc="http://creativecommons.org/ns#"
   xmlns:rdf="http://www.w3.org/1999/02/22-rdf-syntax-ns#"
   xmlns:svg="http://www.w3.org/2000/svg"
   xmlns="http://www.w3.org/2000/svg"
   xmlns:sodipodi="http://sodipodi.sourceforge.net/DTD/sodipodi-0.dtd"
   xmlns:inkscape="http://www.inkscape.org/namespaces/inkscape"
   version="1.1"
   id="Layer_1"
   width="70.688"
   height="91.715"
   viewBox="0 0 70.688 91.715"
   overflow="visible"
   enable-background="new 0 0 70.688 91.715"
   xml:space="preserve"
   inkscape:version="0.47 r22583"
   sodipodi:docname="explainable.svg"
   inkscape:export-filename="/home/manuel/Studium/marvis-graph-svn/src/de/gobics/marvis/graph/gui/ressources/explainable.png"
   inkscape:export-xdpi="311.20999"
   inkscape:export-ydpi="311.20999"><metadata
   id="metadata2833"><rdf:RDF><cc:Work
       rdf:about=""><dc:format>image/svg+xml</dc:format><dc:type
         rdf:resource="http://purl.org/dc/dcmitype/StillImage" /><dc:title></dc:title></cc:Work></rdf:RDF></metadata><defs
   id="defs2831"><inkscape:perspective
     sodipodi:type="inkscape:persp3d"
     inkscape:vp_x="0 : 45.857498 : 1"
     inkscape:vp_y="0 : 1000 : 0"
     inkscape:vp_z="70.688004 : 45.857498 : 1"
     inkscape:persp3d-origin="35.344002 : 30.571665 : 1"
     id="perspective2835" /><inkscape:perspective
     id="perspective3669"
     inkscape:persp3d-origin="0.5 : 0.33333333 : 1"
     inkscape:vp_z="1 : 0.5 : 1"
     inkscape:vp_y="0 : 1000 : 0"
     inkscape:vp_x="0 : 0.5 : 1"
     sodipodi:type="inkscape:persp3d" /><inkscape:perspective
     id="perspective3691"
     inkscape:persp3d-origin="0.5 : 0.33333333 : 1"
     inkscape:vp_z="1 : 0.5 : 1"
     inkscape:vp_y="0 : 1000 : 0"
     inkscape:vp_x="0 : 0.5 : 1"
     sodipodi:type="inkscape:persp3d" /><inkscape:perspective
     id="perspective3728"
     inkscape:persp3d-origin="0.5 : 0.33333333 : 1"
     inkscape:vp_z="1 : 0.5 : 1"
     inkscape:vp_y="0 : 1000 : 0"
     inkscape:vp_x="0 : 0.5 : 1"
     sodipodi:type="inkscape:persp3d" /><inkscape:perspective
     id="perspective3762"
     inkscape:persp3d-origin="0.5 : 0.33333333 : 1"
     inkscape:vp_z="1 : 0.5 : 1"
     inkscape:vp_y="0 : 1000 : 0"
     inkscape:vp_x="0 : 0.5 : 1"
     sodipodi:type="inkscape:persp3d" /><inkscape:perspective
     id="perspective3796"
     inkscape:persp3d-origin="0.5 : 0.33333333 : 1"
     inkscape:vp_z="1 : 0.5 : 1"
     inkscape:vp_y="0 : 1000 : 0"
     inkscape:vp_x="0 : 0.5 : 1"
     sodipodi:type="inkscape:persp3d" /><inkscape:perspective
     id="perspective3830"
     inkscape:persp3d-origin="0.5 : 0.33333333 : 1"
     inkscape:vp_z="1 : 0.5 : 1"
     inkscape:vp_y="0 : 1000 : 0"
     inkscape:vp_x="0 : 0.5 : 1"
     sodipodi:type="inkscape:persp3d" /></defs><sodipodi:namedview
   pagecolor="#ffffff"
   bordercolor="#666666"
   borderopacity="1"
   objecttolerance="10"
   gridtolerance="10"
   guidetolerance="10"
   inkscape:pageopacity="0"
   inkscape:pageshadow="2"
   inkscape:window-width="1280"
   inkscape:window-height="977"
   id="namedview2829"
   showgrid="false"
   inkscape:zoom="8"
   inkscape:cx="53.876271"
   inkscape:cy="54.272187"
   inkscape:window-x="0"
   inkscape:window-y="0"
   inkscape:window-maximized="1"
   inkscape:current-layer="g2817"
   showguides="true"
   inkscape:guide-bbox="true"><sodipodi:guide
     orientation="0,1"
     position="10.375,50.875"
     id="guide3856" /></sodipodi:namedview>
<g
   id="g2817">
	
	
<g
   id="g3714"
   transform="translate(-6.3750002,-7.414269e-8)"
   inkscape:export-filename="/home/manuel/Studium/marvis-graph-svn/src/de/gobics/marvis/graph/gui/ressources/explainable.png"
   inkscape:export-xdpi="311.20999"
   inkscape:export-ydpi="311.20999"><path
     sodipodi:nodetypes="ccccc"
     id="path2879"
     d="m 50.83,21.117778 -39.288889,-1e-6 0,30.326111 0,35.114445 39.288889,0"
     style="fill:none;stroke:#606060;stroke-width:10;stroke-linecap:round;stroke-linejoin:round;stroke-miterlimit:4;stroke-opacity:1;stroke-dasharray:none"
     transform="translate(-3.1812784e-6,0)" /><path
     transform="translate(-3.1812784e-6,0)"
     id="path2883"
     d="m 11.541111,51.443887 30.939998,-10e-7"
     style="fill:none;stroke:#606060;stroke-width:10;stroke-linecap:round;stroke-linejoin:miter;stroke-miterlimit:4;stroke-opacity:1;stroke-dasharray:none" /></g><g
   id="g2858"
   transform="translate(3.9099984,-6.4066667)"
   inkscape:export-filename="/home/manuel/Studium/marvis-graph-svn/src/de/gobics/marvis/graph/gui/ressources/explainable.png"
   inkscape:export-xdpi="311.20999"
   inkscape:export-ydpi="311.20999"><g
     style="opacity:0.3"
     transform="translate(8.3488889,-0.12277778)"
     id="g2819">
		<path
   style="fill-rule:evenodd;stroke:#000000;stroke-width:3"
   id="path2821"
   d="m 11.938,29.84 c 0,-3.096 0.992,-6.233 2.979,-9.411 1.985,-3.178 4.883,-5.811 8.691,-7.896 3.808,-2.085 8.252,-3.13 13.33,-3.13 4.72,0 8.888,0.871 12.503,2.612 3.615,1.741 6.408,4.109 8.379,7.104 1.971,2.995 2.956,6.25 2.956,9.765 0,2.768 -0.563,5.192 -1.687,7.275 -1.124,2.083 -2.46,3.881 -4.007,5.395 -1.548,1.514 -4.325,4.061 -8.332,7.641 -1.109,1.009 -1.999,1.896 -2.667,2.66 -0.669,0.765 -1.167,1.464 -1.493,2.099 -0.326,0.635 -0.579,1.269 -0.759,1.903 -0.18,0.634 -0.448,1.749 -0.807,3.343 -0.618,3.383 -2.554,5.073 -5.807,5.073 -1.691,0 -3.115,-0.553 -4.27,-1.659 -1.155,-1.105 -1.732,-2.749 -1.732,-4.929 0,-2.732 0.423,-5.1 1.27,-7.101 0.847,-2.001 1.971,-3.758 3.371,-5.271 1.4,-1.513 3.289,-3.311 5.666,-5.393 2.084,-1.821 3.59,-3.195 4.518,-4.123 0.928,-0.928 1.71,-1.961 2.345,-3.1 0.635,-1.139 0.953,-2.375 0.953,-3.709 0,-2.603 -0.969,-4.799 -2.905,-6.588 -1.938,-1.789 -4.436,-2.685 -7.495,-2.685 -3.581,0 -6.218,0.903 -7.91,2.709 -1.693,1.806 -3.125,4.465 -4.297,7.979 -1.107,3.678 -3.207,5.516 -6.299,5.516 -1.823,0 -3.361,-0.64 -4.614,-1.921 -1.254,-1.281 -1.88,-2.666 -1.88,-4.158 z m 23.817,53.5 c -1.984,0 -3.717,-0.645 -5.197,-1.932 -1.48,-1.288 -2.22,-3.09 -2.22,-5.405 0,-2.055 0.715,-3.782 2.146,-5.185 1.431,-1.403 3.188,-2.104 5.271,-2.104 2.049,0 3.773,0.701 5.172,2.104 1.399,1.403 2.099,3.13 2.099,5.185 0,2.283 -0.732,4.076 -2.196,5.381 -1.464,1.304 -3.156,1.956 -5.075,1.956 z" />
	</g><g
     transform="translate(10.348889,-0.12277778)"
     id="g2823">
		<g
   id="g2825">
			<path
   style="fill:#606060;stroke:#ffffff;stroke-width:3"
   id="path2827"
   d="m 5.938,29.84 c 0,-3.096 0.992,-6.233 2.979,-9.411 1.985,-3.178 4.883,-5.811 8.691,-7.896 3.808,-2.085 8.252,-3.13 13.33,-3.13 4.72,0 8.888,0.871 12.503,2.612 3.615,1.741 6.408,4.109 8.379,7.104 1.971,2.995 2.956,6.25 2.956,9.765 0,2.768 -0.563,5.192 -1.687,7.275 -1.124,2.083 -2.46,3.881 -4.007,5.395 -1.548,1.514 -4.325,4.061 -8.332,7.641 -1.109,1.009 -1.999,1.896 -2.667,2.66 -0.669,0.765 -1.167,1.464 -1.493,2.099 -0.326,0.635 -0.579,1.269 -0.759,1.903 -0.18,0.634 -0.448,1.749 -0.807,3.343 -0.618,3.383 -2.554,5.073 -5.807,5.073 -1.691,0 -3.115,-0.553 -4.27,-1.659 -1.155,-1.105 -1.732,-2.749 -1.732,-4.929 0,-2.732 0.423,-5.1 1.27,-7.101 0.847,-2.001 1.971,-3.758 3.371,-5.271 1.4,-1.513 3.289,-3.311 5.666,-5.393 2.084,-1.821 3.59,-3.195 4.518,-4.123 0.928,-0.928 1.71,-1.961 2.345,-3.1 0.635,-1.139 0.953,-2.375 0.953,-3.709 0,-2.603 -0.969,-4.799 -2.905,-6.588 -1.938,-1.789 -4.436,-2.685 -7.495,-2.685 -3.581,0 -6.218,0.903 -7.91,2.709 -1.693,1.806 -3.125,4.465 -4.297,7.979 -1.107,3.678 -3.207,5.516 -6.299,5.516 -1.823,0 -3.361,-0.64 -4.614,-1.921 -1.254,-1.281 -1.88,-2.666 -1.88,-4.158 z m 23.817,53.5 c -1.984,0 -3.717,-0.645 -5.197,-1.932 -1.48,-1.288 -2.22,-3.09 -2.22,-5.405 0,-2.055 0.715,-3.782 2.146,-5.185 1.431,-1.403 3.188,-2.104 5.271,-2.104 2.049,0 3.773,0.701 5.172,2.104 1.399,1.403 2.099,3.13 2.099,5.185 0,2.283 -0.732,4.076 -2.196,5.381 -1.464,1.304 -3.156,1.956 -5.075,1.956 z" />
		</g>
	</g></g></g>
</svg>